<svg xmlns="http://www.w3.org/2000/svg" width="115.617" height="99.311" viewBox="0 0 115.617 99.311"><g id="FormatVertical-ColorFull-White-50THYes-Logo-IEYes" transform="translate(-90.429)"><path id="Trazado_17" data-name="Trazado 17" d="M1139.307,101.74a23.692,23.692,0,0,0-23.687,23.7v.31a25.131,25.131,0,0,0,45.419,14.853l-9.746-7.224a11.75,11.75,0,0,1-21.8-2.67h32.883c.024-.048.024-.072.048-.119.047-.239.119-.477.142-.715a24.612,24.612,0,0,0,.407-4.434A23.657,23.657,0,0,0,1139.307,101.74Zm-8.7,18.31a9.4,9.4,0,0,1,18.11,0Z" transform="translate(-1002.806 -79.229)" fill="#fff"></path><path id="Trazado_18" data-name="Trazado 18" d="M1037.55,101.74h-16.07V150.9h16.07Z" transform="translate(-929.495 -79.229)" fill="#fff"></path><path id="Trazado_19" data-name="Trazado 19" d="M1033.677,9.614A9.613,9.613,0,1,1,1024.063,0,9.613,9.613,0,0,1,1033.677,9.614Z" transform="translate(-924.021)" fill="#60b9fc"></path><path id="Trazado_20" data-name="Trazado 20" d="M1014.45,391.852c0,3.227,2.334,5.42,5.826,5.42,3.472,0,5.806-2.192,5.806-5.42v-9.236h-2.62v9.215a3.2,3.2,0,0,1-6.394.02v-9.236h-2.618Z" transform="translate(-924.021 -297.96)" fill="#fff"></path><path id="Trazado_21" data-name="Trazado 21" d="M1082.65,397.028h2.62v-8.3c0-.852-.144-2.233-.144-2.233h.042a21.689,21.689,0,0,0,1.2,2.233l5.46,8.3h2.6V382.616h-2.6v8.322c0,.853.142,2.233.142,2.233h-.04a21.89,21.89,0,0,0-1.2-2.233l-5.458-8.322h-2.62Z" transform="translate(-977.131 -297.96)" fill="#fff"></path><path id="Trazado_22" data-name="Trazado 22" d="M1152.35,397.028h2.62V382.616h-2.62Z" transform="translate(-1031.409 -297.96)" fill="#fff"></path><path id="Trazado_23" data-name="Trazado 23" d="M1177.577,397.028h2.6l5.257-14.412h-2.8l-3.187,9.4c-.285.833-.529,2.111-.549,2.111h-.04c-.02,0-.266-1.278-.549-2.111l-3.166-9.4h-2.821Z" transform="translate(-1046.961 -297.96)" fill="#fff"></path><path id="Trazado_24" data-name="Trazado 24" d="M1239.71,397.028h8.95v-2.253h-6.332V390.9h4.852v-2.253h-4.852v-3.776h6.009v-2.253h-8.627Z" transform="translate(-1099.441 -297.96)" fill="#fff"></path><path id="Trazado_25" data-name="Trazado 25" d="M1292.48,397.028h2.617v-5.379h2.518l2.861,5.379h2.923l-2.963-5.379a3.6,3.6,0,0,0-.487-.711V390.9a4.149,4.149,0,0,0,2.436-3.938,4.07,4.07,0,0,0-2.356-3.938,6.7,6.7,0,0,0-2.9-.406h-4.646Zm2.617-7.653v-4.506h1.989c2.051,0,2.64.852,2.64,2.233a2.092,2.092,0,0,1-2.275,2.273Z" transform="translate(-1140.535 -297.96)" fill="#fff"></path><path id="Trazado_26" data-name="Trazado 26" d="M1347.91,394.446a6.974,6.974,0,0,0,4.972,1.969c3,0,4.75-1.928,4.75-4.222,0-4.608-6.779-3.978-6.779-6.536,0-1.015.954-1.725,2.173-1.725a5.262,5.262,0,0,1,3.186,1.259l1.137-2.131a6.131,6.131,0,0,0-4.3-1.542c-2.761,0-4.832,1.786-4.832,4.181,0,4.425,6.8,3.979,6.8,6.557,0,1.177-1,1.746-2.091,1.746a5.768,5.768,0,0,1-3.593-1.522Z" transform="translate(-1183.701 -297.104)" fill="#fff"></path><path id="Trazado_27" data-name="Trazado 27" d="M1403.66,397.028h2.617V382.616h-2.617Z" transform="translate(-1227.116 -297.96)" fill="#fff"></path><path id="Trazado_28" data-name="Trazado 28" d="M1428.81,397.028h2.617V384.869h4.73v-2.253H1424.08v2.253h4.73Z" transform="translate(-1243.018 -297.96)" fill="#fff"></path><path id="Trazado_29" data-name="Trazado 29" d="M1486.65,397.028h2.62V391l4.79-8.383H1491.1l-2.235,4.243c-.467.893-.872,1.928-.872,1.928h-.04c-.022.02-.407-1.035-.874-1.928l-2.252-4.243h-2.964l4.79,8.383Z" transform="translate(-1288.014 -297.96)" fill="#fff"></path></g></svg>